<?xml version="1.0" encoding="utf-8"?>
<!-- Generator: Adobe Illustrator 16.0.3, SVG Export Plug-In . SVG Version: 6.00 Build 0)  -->
<!DOCTYPE svg PUBLIC "-//W3C//DTD SVG 1.1//EN" "http://www.w3.org/Graphics/SVG/1.1/DTD/svg11.dtd">
<svg version="1.1" xmlns="http://www.w3.org/2000/svg" xmlns:xlink="http://www.w3.org/1999/xlink" x="0px" y="0px" width="1000px"
	 height="1000px" viewBox="0 0 1000 1000" enable-background="new 0 0 1000 1000" xml:space="preserve">
<g id="Layer_4" display="none">
	<rect display="inline" width="1000" height="1000"/>
</g>
<g id="Layer_1">
	<path fill="#BE1E2D" d="M739.788,561.889V773.84c0,80.354-42.304,120.52-126.846,120.52H500.917v-97.992h82.942
		c29.466,0,44.22-11.623,44.22-34.916V582.365c0-16.039-3.874-28.699-11.646-38.025c-0.224-0.271-0.473-0.563-0.743-0.834
		c-10.79-12.389-28.812-18.584-53.95-18.584h-60.822v-103.96h154.465v0.022c3.086,0.991,6.104,2.005,9.011,3.155
		c20.432,7.884,36.695,20.139,48.814,36.785C730.936,485.253,739.788,518.885,739.788,561.889z"/>
	<path fill="#FFFFFF" d="M373.829,177.991h65.484V80h-78.28c-99.297,0-148.946,48.815-148.946,146.423v155.433
		c0,46.563,26.761,75.104,80.285,85.601v5.632c-61.273,16.534-91.931,47.306-91.931,92.358v202.74
		c0,80.352,42.306,120.516,126.847,120.516h112.025v-97.99h-82.942c-29.465,0-44.221-11.623-44.221-34.916V576.711
		c0-38.295,22.122-57.443,66.341-57.443h60.822v-97.99h-51.519c-42.665,0-63.998-19.509-63.998-58.569V236.56
		C323.797,197.521,340.489,177.991,373.829,177.991z"/>
	<path fill="#BE1E2D" d="M728.142,232.076v65.305H616.433v-55.168c0-4.303-0.202-8.38-0.631-12.209
		c-3.265-30.907-19.732-46.36-49.4-46.36h-65.484V85.653h78.28C678.493,85.653,728.142,134.468,728.142,232.076z"/>
</g>
<g id="Layer_3">
	<rect x="459.057" y="17.181" fill="#FFFFFF" width="16.519" height="965.64"/>
	<rect x="769.704" y="622.891" fill="none" width="353.668" height="265.813"/>
	<text transform="matrix(1 0 0 1 769.7041 703.7598)" fill="#BE1E2D" font-family="'BigNoodleTitling'" font-size="112.6329">IDE</text>
	<rect x="-63.78" y="622.891" fill="none" width="227.52" height="171.201"/>
	<text transform="matrix(-1 0 0 1 163.7393 703.7598)" fill="#FFFFFF" font-family="'BigNoodleTitling'" font-size="112.6329">E</text>
</g>
</svg>
